<?xml version="1.0" encoding="utf-8"?>
<!-- Generator: Adobe Illustrator 25.2.3, SVG Export Plug-In . SVG Version: 6.00 Build 0)  -->
<svg version="1.1" baseProfile="tiny" id="Layer_1" xmlns="http://www.w3.org/2000/svg" xmlns:xlink="http://www.w3.org/1999/xlink"
	 x="0px" y="0px" viewBox="0 0 1640 856" overflow="visible" xml:space="preserve">
<g>
	<path d="M51.83,503.05c-14.27-11.47-17.79-27.24-17.38-44.38c0.63-26.22,8.84-50.63,18.7-74.53c4.91-11.9,10.45-23.55,15.9-35.22
		c1.09-2.33,3.09-4.24,4.67-6.34c0.81,0.27,1.62,0.53,2.43,0.8c-0.64,3.23-0.86,6.63-1.99,9.68c-6.57,17.66-13.92,35.05-19.9,52.91
		c-4.99,14.89-8.06,30.37-3.28,46.06c1.52,4.98,3.54,10.07,6.48,14.3c5.62,8.08,14.46,7.55,19.63-0.96
		c2.36-3.88,3.52-8.47,5.53-12.59c0.85-1.74,2.46-3.11,3.73-4.66c0.61,1.78,2.13,3.84,1.69,5.29c-4.1,13.35-7.84,26.89-13.26,39.71
		c-1.95,4.61-8.16,7.41-12.43,11.03c-1.31,1.11-3.3,1.91-3.88,3.31c-8.12,19.61-16.01,39.46-15.39,61.12
		c1,35.3,15.94,62.99,50.32,74.79c19.21,6.59,39,5.45,58.55,0.24c29.62-7.91,56.4-22.12,82.48-37.71
		c11.04-6.6,21.65-13.96,32.28-21.23c6.16-4.21,6.37-7.79-0.3-11.13c-8.54-4.29-17.63-7.78-26.84-10.36
		c-16.81-4.72-33.86-8.63-50.87-12.65c-4.24-1-5.24-3.42-4.13-7.04c2.56-8.36,5.01-16.77,8.21-24.89c0.93-2.35,3.96-4.5,6.52-5.48
		c18.47-7.06,37.05-13.83,55.62-20.62c12.4-4.53,24.84-8.95,38.86-13.99c-12.56-2.71-23.42-5.25-34.35-7.36
		c-14.01-2.71-28.08-5.11-42.14-7.57c-1.8-0.32-3.68-0.27-5.52-0.28c-12.71-0.06-12.77-0.08-7.27-12.07
		c2.49-5.44,4.56-11.3,8.17-15.91c2.74-3.5,7.33-6.02,11.59-7.78c21.2-8.78,42.57-17.16,62.48-25.13c0-11.38-0.48-20.67,0.1-29.89
		c1.15-18.41,10.06-33.77,20.73-48.1c2.76-3.71,7.1-6.61,11.26-8.85c5.97-3.21,11.68-1.43,15.99,3.81
		c12.88,15.64,15.83,33.63,10.75,52.61c-2.5,9.34-7.71,17.95-11.68,26.89c-0.63,1.42-1.21,2.87-1.95,4.62
		c23.81,6.18,41.67-2.84,56.42-20.27c4.46-5.27,8.33-11.07,13.02-16.11c1.48-1.59,4.76-1.51,7.21-2.2c0.54,2.03,1.75,4.16,1.5,6.09
		c-1.63,12.59,0.74,19.43,8.52,23.37c9.64,4.88,25.31,3.55,31.44-4.34c6.56-8.45,11.39-18.24,16.94-27.47
		c1.54-2.56,2.68-5.41,4.55-7.68c0.92-1.12,3.44-2.03,4.6-1.54c1.23,0.53,2.35,2.82,2.37,4.36c0.02,2.46-0.84,4.94-1.44,7.38
		c-2.33,9.6,0.39,15.64,9.2,20.38c6.01,3.23,16.05,2.97,22.53-1.14c-10.93-14.99-4.54-28.8,3.48-44.51
		c2.44,3.76,4.17,5.81,5.22,8.16c7.4,16.53,4.85,32.84-1.42,48.99c-1.49,3.84-2.82,7.88-5.04,11.29
		c-13.37,20.54-37.45,11.6-45.98-2.07c-1.2-1.92-2.14-4-3.61-6.8c-3.03,5.09-5.58,9.61-8.34,14c-8.16,12.98-21.3,18.56-35.42,15.4
		c-10.01-2.24-16.03-8.53-19.02-18.04c-1.08-3.44-1.87-6.97-3.01-11.31c-6.11,7.54-11.18,14.64-17.1,20.94
		c-11.87,12.63-26.05,20.4-44.14,18.3c-11.46-1.33-21.86-5.04-30.57-13.02c-1.48-1.35-4.66-2.62-6.12-1.93
		c-9.94,4.7-19.64,9.93-30.82,15.73c13.04,2.81,24.75,5.34,36.46,7.86c31.1,6.68,62.44,11.46,94.34,11.8
		c5.66,0.06,6.94,2.34,4.6,7.49c-0.19,0.42-0.48,0.78-0.71,1.19c-4.22,7.6-6.7,17.97-13.15,22.01c-6.44,4.03-17.06,0.72-25.49,2.39
		c-21.37,4.23-42.78,8.64-63.74,14.53c-17.22,4.84-33.83,11.89-50.69,18.02c-2.53,0.92-4.95,2.13-8.29,3.59
		c10.36,3.5,19.98,6.1,29.06,9.97c14.4,6.14,20.67,17.18,17.99,32.7c-2.78,16.16-7.06,31.83-22.18,41.84
		c-16.84,11.15-32.91,23.53-50.14,34.03c-20.83,12.68-42.9,23.1-66.6,29.56c-24.15,6.58-48.4,8.34-71.28-3.48
		c-9.67-5-19.18-12.15-25.95-20.58c-15.17-18.9-21.82-41.41-20.53-65.74C32.36,553.64,33.95,548.41,51.83,503.05z M310.67,390.58
		c28.65-16.74,27.08-16.15,14.58-38.68c-0.33-0.6-0.66-1.21-1.09-1.75c-3.46-4.36-8.15-6.55-12.36-2.35
		c-5.23,5.22-9.36,11.58-13.69,17.64c-0.73,1.02-0.62,3.37,0.07,4.56C302.12,376.85,306.34,383.53,310.67,390.58z"/>
	<path d="M1596.31,366.37c-0.27-1.88-0.16-2.68-0.49-3.18c-8.66-13.09-4.96-26.3-0.33-39.46c0.59-1.68,2.31-2.97,3.5-4.44
		c1.37,1.38,3.21,2.52,4.03,4.18c12.09,24.55,5.95,47.73-6.84,69.56c-4.88,8.33-20.9,12.72-32.32,4.24
		c-6.2-4.6-10.95-11.15-16.64-17.12c-1.07,2.04-2.69,5.73-4.83,9.07c-6.68,10.41-13.88,20.1-27.56,21.97
		c-15.95,2.18-27.23-3.59-34-18.37c-2.29-5-3.98-10.29-5.65-15.55c-2.9-9.12-9.26-10.96-15.76-3.9
		c-5.28,5.74-9.83,12.17-14.71,18.28c-9.03,11.3-18.07,22.6-27.1,33.9c-0.68,0.86-1.39,1.69-2.86,3.48
		c12.51,1.35,24.05,2.65,35.61,3.82c19.44,1.97,38.86,4.37,58.35,5.62c13.97,0.89,28.04,0.36,42.06,0.13
		c7.31-0.12,7.98,0.46,5.61,7.44c-0.52,1.52-1,3.05-1.39,4.61c-3.55,14.39-11.25,21.17-27.43,23.31
		c-29.08,3.86-55.57,17.46-82.25,29.36c-22.69,10.13-45.24,20.59-67.74,31.13c-31.65,14.83-56.13,37.79-76.44,66.03
		c-10.57,14.7-22.99,28.13-35.18,41.59c-15.81,17.44-41.99,12.87-54.59-2.22c-19.65-23.55-20.35-48.84-10.76-75.22
		c6.4-17.61,16.09-34.02,24.27-50.99c0.87-1.8,2.15-3.72,2.14-5.58c-0.03-29.38,9.66-55.5,26.16-79.4c0.24-0.35,0.28-0.84-0.01,0.09
		c-12.05-14.88-22.54-30.18-35.54-42.91c-6.62-6.48-5.83-11.7-4.75-18.58c0.82-5.23,1.36-10.5,2.26-15.72
		c0.56-3.28,2.42-6.48,6.01-4.06c11.25,7.56,22.16,15.64,33.14,23.61c0.53,0.39,0.43,1.65,0.84,3.46c-4.12,0.2-7.8,0.38-12.61,0.61
		c9.74,9.56,18.78,18.45,28.8,28.28c14.28-20.67,28.71-41.54,43.13-62.41c0.62,0.37,1.24,0.73,1.86,1.1
		c-2.37,28.07-20.28,49.13-34.21,72.08c4.49,5.09,8.79,9.87,12.98,14.74c14.45,16.79,17.39,35.98,11.8,56.95
		c-0.77,2.89-1.21,5.86-1.87,8.78c-2.17,9.53-6.19,17.68-15.44,22.5c-8.33,4.34-16.03,10.15-24.69,13.54
		c-6.39,2.5-13.9,2.86-20.91,2.83c-7.07-0.03-11.61-4.92-14.6-12.16c-9.75,15.11-16.7,30.58-21.18,47.24
		c-3.43,12.75-6.18,25.37-3.06,38.74c4.3,18.42,23.11,26.52,39.38,16.79c14.93-8.93,26.08-21.72,36.89-34.95
		c10.46-12.8,20.61-25.88,31.49-38.31c24.57-28.06,56.25-45.49,90.22-59.43c18.48-7.58,36.81-15.5,55.2-23.27
		c0.02-0.73,0.03-1.46,0.05-2.2c-35.77-2.92-71.55-5.83-108.63-8.86c2-5.49,4.81-11.67,6.51-18.15
		c3.23-12.31,13.92-15.25,23.4-20.06c18.3-9.27,36.89-18.36,50.71-34.1c7.54-8.59,13.72-18.36,20.77-27.4
		c4.22-5.42,8.37-11.12,13.54-15.54c9.84-8.41,17.96-5.04,21.15,7.45c1.62,6.35,3.88,12.8,7.21,18.39
		c10.66,17.89,39.39,13.21,47.12-1.81c4.32-8.39,8.66-16.76,13.02-25.13c1.38-2.65,2.58-5.48,4.45-7.75
		c0.92-1.13,3.41-1.94,4.71-1.49c1.06,0.37,1.93,2.82,1.93,4.34c0,2.25-0.86,4.5-1.34,6.75c-3.08,14.52,6.57,26.05,21.54,25.45
		C1588.35,367.97,1592.27,366.99,1596.31,366.37z M1267.66,438.19c-0.93,0.34-1.86,0.68-2.8,1.03
		c-5.17,8.38-10.54,16.65-15.45,25.18c-3.19,5.54-6.44,11.24-8.37,17.28c-3.9,12.19,1,18.47,13.78,18.67
		c1.79,0.03,3.78-0.09,5.36-0.83c11.17-5.21,22.3-10.51,33.33-15.99c3.57-1.77,5.02-4.73,2.25-8.39
		C1286.43,462.8,1277.03,450.51,1267.66,438.19z"/>
	<path d="M606.94,565.65c-2.02-1.68-2.37-1.85-2.35-1.97c1.53-10.71-5.54-12.8-13.79-15.95c-19.87-7.6-30.92-24.02-35.57-43.81
		c-4.03-17.16-6.23-34.9-7.58-52.51c-2.85-37.13-4.15-74.38-6.97-111.51c-3-39.45-6.26-78.91-10.94-118.19
		c-2.57-21.59-6.4-43.43-13.22-63.97c-5.04-15.19,2.01-26.84,4.38-40c0.14-0.76,2.21-1.96,2.39-1.8c1.29,1.12,2.86,2.35,3.35,3.88
		c4.03,12.47,9.41,24.76,11.42,37.56c5.44,34.76,10.45,69.66,13.71,104.69c3.5,37.59,4.56,75.39,7.15,113.07
		c2.04,29.62,4.03,59.29,7.49,88.76c2.06,17.57,8.39,34.05,23.41,45.48c1.2,0.91,2.52,1.67,3.63,2.4
		c-1.49-10.85-4.39-21.49-4.08-32.04c0.52-17.91,4.24-35.27,19.44-47.53c10.21-8.23,22.37-11.1,34.49-8.11
		c19.12,4.72,37.63,11.88,56.61,17.23c20.98,5.92,42.16,11.14,63.34,16.31c6.86,1.67,13.99,2.23,22.73,3.55
		c-4.37,9.8-8.3,18.72-12.39,27.55c-0.36,0.78-1.9,1.51-2.84,1.46c-25.58-1.45-46.27,11.48-67.68,22.6
		c-21.4,11.11-42.97,21.93-64.8,32.15c-6.48,3.03-14.06,4.19-21.27,5.03c-4.14,0.49-5.41,1.97-6.24,5.55
		C609.97,558.76,608.41,561.81,606.94,565.65z M614.32,517.22c35.64-2.4,64.83-21.09,95.14-38c-24.97-6.16-46.78-21.57-73.01-22.64
		c-6.98-0.28-14.18-0.16-20.97,1.28c-8.2,1.74-15.61,11.04-14.06,16.46C605.44,488.43,609.84,502.42,614.32,517.22z"/>
	<path d="M798.03,508.79c-1.36,4.18-2.37,8.51-4.16,12.5c-6.96,15.51-14.69,30.69-21.11,46.42c-4.96,12.15-7.63,24.83-5.25,38.41
		c4.32,24.59,24.21,33.77,46.54,15.91c11.52-9.21,21.31-20.89,30.69-32.42c17.14-21.05,32.57-43.54,50.26-64.09
		c17.58-20.41,39.47-35.06,66.94-39.43c14.24-2.26,25.91,2.43,34.78,13.61c13.38,16.87,31.81,18.74,48.32,7.99
		c6.02-3.92,9.47-12.07,13.53-18.63c3.99-6.44,7.06-13.45,11-19.93c1.05-1.72,3.81-2.4,5.79-3.56c0.78,2.15,1.58,4.3,2.34,6.45
		c0.07,0.19-0.01,0.47-0.1,0.68c-3.78,9.53-3.28,18.06,5.82,24.49c9.29,6.56,19.14,8.46,30.22,3.35c-1.65-4.86-2.71-9.82-4.93-14.18
		c-6.13-12.04,1.37-22.31,4.51-32.79c1.34-4.46,4.79-0.33,6.38,2.59c10.44,19.17,9.26,38.39,0.45,57.71
		c-3.53,7.74-6.66,15.31-14.91,19.96c-14.85,8.36-34.48-2.6-39.88-14.28c-0.96-2.07-2-4.11-3.36-6.9c-3.88,6.29-7.26,12.14-11,17.76
		c-11.63,17.47-39.57,24-56.13,6.29c-7.46-7.98-15.61-15.52-27.17-17.95c-12.05-2.53-22.61,2.46-32.23,7.52
		c-26.74,14.06-45.04,37.27-62.38,61.28c-14.92,20.67-28.52,42.31-47.74,59.69c-17.77,16.07-38.34,11.12-52.15-5.77
		c-17.49-21.4-18.13-45.12-10.34-69.81c6.88-21.8,16.72-42.36,30.16-61.02c0.75-1.04,1.75-1.88,2.64-2.82
		C796.38,508.15,797.2,508.47,798.03,508.79z"/>
	<path d="M1137.61,110.57c3.31,7.72,6.94,15.32,9.87,23.18c7.46,20.02,14.78,40.1,21.7,60.32c1.2,3.5,0.17,7.76,0.17,11.67
		c-0.74,0.28-1.48,0.56-2.21,0.84c-4.67-5.85-9.33-11.71-14-17.56c-0.64,0.15-1.27,0.31-1.91,0.46c0,2.54-0.21,5.09,0.03,7.6
		c2.3,24.06,4.34,48.16,7.11,72.17c4.64,40.22,10.15,80.34,14.57,120.58c3.06,27.86,5.95,55.83,6.93,83.81
		c0.83,23.67-1.76,47.37-10.64,69.8c-1.01,2.55-2.95,4.74-4.46,7.09c-0.82-0.21-1.63-0.41-2.45-0.62c0-4.65,0.1-9.31-0.02-13.96
		c-0.56-22.96-0.2-46.01-2.01-68.87c-2.41-30.46-6.46-60.79-9.92-91.17c-5.33-46.82-11.11-93.59-16-140.45
		c-2.5-24.01-3.42-48.19-5.19-72.28c-0.25-3.4-0.41-7.23-2.04-10.03c-4.45-7.64-3.36-14.65,0.24-22.13
		c3.15-6.55,5.57-13.46,8.31-20.2C1136.33,110.73,1136.97,110.65,1137.61,110.57z"/>
	<path d="M826.7,372.11c-4.52,0.55-8.2,1-13.37,1.64c9.66,8.69,18.33,16.48,28.05,25.23c12.82-19.36,26.51-40.04,40.2-60.71
		c0.65,0.33,1.29,0.65,1.94,0.98c0.21,28.05-18.82,48.09-30.84,71.17c5.12,6.28,10.51,12.83,15.83,19.43
		c8.9,11.03,12,23.64,10.07,37.58c-0.85,6.16-1.9,12.29-2.55,18.46c-1.08,10.16-4.93,18.87-13.74,24.37
		c-13.71,8.57-26.61,19.01-44.51,17.84c-7.68-0.5-11.8-4.17-14.54-10.49c-5.88-13.59-3.95-27.5-1.53-41.43
		c3.33-19.19,12.29-35.97,22.33-51.82c-12.85-14.95-25.46-29.53-37.9-44.26c-1.14-1.35-1.76-3.69-1.6-5.48
		c0.75-8.25,1.92-16.47,2.84-24.71c0.41-3.65,2.48-5.44,5.53-3.39c10.9,7.29,21.54,14.95,32.24,22.53
		C825.63,369.37,825.76,370.19,826.7,372.11z M837.07,433.33c-3.91,6.38-7.07,11.12-9.82,16.09c-4.77,8.62-9.8,17.16-13.77,26.15
		c-5.01,11.37,0.8,19.46,13.31,19.24c3.14-0.06,6.56-0.57,9.33-1.93c8.81-4.34,17.3-9.32,26.05-13.79
		c6.28-3.21,5.85-7.54,2.22-12.12C855.63,455.9,846.6,445.03,837.07,433.33z"/>
	<path d="M1534.24,576.73c19.71-13.54,39.38-4.08,59.56-1.67c-11.86,21.56-40.37,35.16-62.58,30.33c-2.02-0.44-3.62-2.77-5.42-4.22
		c1.99-0.58,4.17-2.01,5.94-1.61c21.07,4.78,36.43-4.26,49.46-19.78c-20.46-6.89-35.39-6.76-49.35,8.03
		c8.4-0.58,16.19-4.28,24.26-3.17c0.09,0.65,0.18,1.31,0.27,1.96c-5.59,1.61-11.28,2.94-16.76,4.87c-11.3,4-21.2,9.89-29.74,18.79
		c-15.99,16.64-35.69,27.11-58.6,31.1c-0.75,0.13-1.63-0.45-3.21-0.92c3.59-5.92,6.43-10.51,14.36-11.15
		c18.04-1.45,32.61-10.78,44.51-23.88c5.07-5.59,0.99-12.16-1.23-18.05c-2.51-6.65-6.16-13.02-7.7-19.87
		c-3.79-16.82,3.01-31.1,12.71-44.22c1.04-1.4,3.72-1.58,4.59-1.92c3.03,7.72,6.01,14.34,8.22,21.21c2.7,8.42,4.75,17.04,7.36,26.57
		c1.62-4.11,4.08-8.28,4.82-12.74c1.04-6.29,0.45-12.83,1.18-19.2c1.61-14.13,9.44-24.41,21.62-31c8.67-4.69,17.95-8.27,27.05-12.1
		c1.4-0.59,3.33,0.11,5.02,0.21c-0.59,1.54-1.13,3.09-1.78,4.6c-2.03,4.74-5.38,9.31-5.92,14.21
		c-2.38,21.42-12.56,37.01-32.83,44.65C1540.9,561.21,1537.29,568.12,1534.24,576.73z M1578.41,503.58
		c-24.59,7.23-37.6,22.47-36.11,42.93c2.88-4.45,5.01-8.52,7.89-11.95c2.52-2.99,3.84-8.48,10.62-6.98
		c-5.41,8.67-10.36,16.62-16.07,25.77C1566.51,546.55,1574.03,535.06,1578.41,503.58z M1518.82,586.9
		c8.5-18.59,5.11-36.85-7.1-54.13c-11.81,14.6-11.34,36.19,2.47,53.57c-0.43-9.62-0.86-19.24-1.28-28.85
		c0.66-0.03,1.32-0.06,1.98-0.1C1519.78,566.01,1518.99,575.63,1518.82,586.9z"/>
	<path d="M485.11,591.01c-15.4,6.26-30.51,13.98-46.55,5.15c-6.76-3.72-13.62-8.15-18.72-13.81c-6.78-7.52-11.9-16.55-17.86-25.12
		c1.61-0.81,2.42-1.54,2.77-1.36c9.64,4.95,19.99,4.68,30.34,4.17c16.88-0.83,30.39,6.64,40.08,19.28
		c5.53,7.22,11.1,7.91,20.12,5.29c-1.6-0.83-3.41-1.4-4.75-2.53c-9.28-7.8-13.88-18.08-15.69-29.88c-0.8-5.2-2.15-10.3-3.02-15.49
		c-0.24-1.41,0.08-3.1,0.71-4.39c0.24-0.5,2.31-0.71,3.09-0.26c12.08,6.96,25.95,11.9,32.95,25.11c3.24,6.12,5.69,13.19,6.32,20.02
		c0.57,6.27,2.97,9.97,8.04,12.55c5.32,2.7,10.73,5.22,16.14,7.75c11.45,5.37,19.32,14.64,26.68,24.47
		c1.23,1.64,2.49,3.27,3.82,4.84c4.29,5.06,7.87,10.35,4.96,17.4c-0.77,1.86-2.03,3.51-3.07,5.25c-0.99-1.61-2.41-3.09-2.89-4.83
		c-4.19-15.17-12.99-27.36-24.85-37.27c-4.18-3.49-9.56-4.28-15.44-5.2c-17.08-2.66-30.68,2.4-43.23,14.44
		c-0.02-7.72,1.09-8.6,25-22.53c-3.05,0-6.2-0.49-9.14,0.09c-11.44,2.26-21.15,7.7-28.51,16.89c-4.15,5.18-8.06,10.56-12.59,16.53
		c10.42,1.24,20.19,0.5,28.68-4.87c7.85-4.96,14.82-11.31,23.56-16.18c-0.89,2.05-1.41,4.37-2.72,6.1
		c-14.48,19.14-36.6,23.75-58.04,20.31c-1.6-0.26-3.42-2.09-4.11-3.64c-0.31-0.7,1.77-2.66,2.99-3.81
		c3.77-3.57,7.78-6.9,11.46-10.56C469.2,607.38,476.62,599.68,485.11,591.01z M471.09,586.99c-9.15-17.58-29.39-24.49-54.31-20.44
		c8.15,20.77,34.57,34.1,48.78,24.7c-8.58-3.79-18.57-5.16-24.99-12.88c0.27-0.63,0.54-1.26,0.8-1.89
		C451.28,579.98,461.19,583.49,471.09,586.99z M491.99,559.02c5.93,7.49,11.28,14.25,16.63,21c1.37-17.95-14.09-36.56-29.2-38.16
		c-0.83,19.03,9.58,36.99,23.95,41.33C491.41,565.47,491.41,565.47,491.99,559.02z"/>
	<path d="M1565.9,128.08c-2.87,9.05-5.51,15.39-14.93,18.86c-30.62,11.26-60.84,23.64-91.03,36.02
		c-26.59,10.9-53.16,21.93-79.33,33.79c-15.89,7.2-31.04,16.04-46.45,24.27c-2.32,1.24-4.24,3.22-7.79,5.99
		c5.6,3.28,9.81,6.36,14.49,8.33c6.79,2.85,5.73,8.1,4.67,13.24c-0.21,1.03-3.42,2.55-4.54,2.09c-5.88-2.4-11.72-5.06-17.16-8.32
		c-1.73-1.04-3.36-4.39-3.04-6.36c2.07-12.66,5.15-25.25,17.85-31.72c19.67-10.01,39.2-20.46,59.54-28.94
		c54.33-22.65,109.06-44.35,163.64-66.4C1562.62,128.61,1563.54,128.56,1565.9,128.08z"/>
	<path d="M1101.86,113.75c-2.89,9.37-6.06,15.19-14.96,18.81c-52.59,21.4-104.95,43.38-157.05,65.95
		c-15.92,6.9-30.77,16.29-48.21,25.67c5.3,3.61,8.48,6.44,12.18,8.16c7.26,3.37,9.7,8.48,7.14,16.49
		c-8.74,0.74-16.07-2.92-21.6-9.18c-2.04-2.31-2.09-7.26-1.57-10.78c2.52-17.09,14.16-26.64,28.89-33.24
		c33.15-14.85,66.18-29.99,99.57-44.28c27.47-11.75,55.38-22.47,83.13-33.57C1092.95,116.35,1096.71,115.4,1101.86,113.75z"/>
	<path d="M146.33,316.64c6.97,5.37,13.84,10.17,20.11,15.66c5.36,4.69,0.62,9.75-0.56,14.63c-1.06,4.37-4.31,3.44-7.55,3.86
		c-6.3,0.81-12.77,1.76-18.63,4.05c-5.34,2.09-7.59,6.85-5.85,13.08c4.64,16.6,10.28,33.07,13.08,49.99
		c2.18,13.17,0.74,26.95,0.77,40.46c0,1.18-0.98,2.37-2.13,4.95c-0.66-2.53-1.25-3.66-1.2-4.77c0.78-19.1-2.44-37.53-8.27-55.71
		c-3.43-10.69-6.4-21.66-8.11-32.73c-1.48-9.6,1.37-19.02,8.57-25.95c3.44-3.31,8.53-4.91,12.89-7.3c-6.37-5.65-6.37-5.65-14.42,4.6
		c-3.42-5.59-0.04-15.14,8.45-22.76c-5.72-11.57-11.53-23.34-17.78-35.99c-7.21,6.19-11.39,0.7-15.26-2.16
		c-1.76-1.3-1.64-6.52-0.84-9.56c1-3.85,3.56-7.29,5.44-10.9c3.85,2.21,8.84,3.55,11.35,6.8c6.83,8.83,12.62,18.48,18.44,27.23
		c1.4-7.99,2.83-17.32,4.75-26.54c0.79-3.78,1.91-7.9,4.2-10.82c2.1-2.67,6.78-6.1,8.94-5.33c4.01,1.44,8.09,5.14,10.06,8.97
		c1.46,2.84-0.36,7.37-0.92,13.15c-2.92-3.11-4.43-4.67-5.89-6.28c-4.33-4.77-8.51-4.26-11.15,1.61c-1.12,2.49-1.89,5.22-2.32,7.92
		C150.27,290.58,148.21,304.42,146.33,316.64z"/>
	<path d="M189.59,715.27c3.78-6.75,7.45-12.79,10.62-19.08c2.5-4.97,5.21-6.38,10.11-2.78c7.04,5.17,14.3,10.05,21.64,14.79
		c4.32,2.79,5.32,5.91,2.63,10.35c-4.84,8-9.57,16.07-14.58,24.5c-10.3-7.43-19.75-14.25-29.96-21.62
		c-3.77,6.87-7.06,13.05-10.54,19.13c-4.21,7.36-5.17,7.25-11.7,2.12c-8.11-6.36-16.6-12.23-25.61-18.82
		c4.63-8.99,9.16-18.22,14.25-27.12c0.54-0.95,4.91-0.89,6.55,0.17C171.81,702.62,180.33,708.8,189.59,715.27z"/>
	<path d="M1257.29,282.72c-4.06,7.31-7.62,13.74-11.2,20.15c-2.57,4.6-5.37,5.34-9.86,1.72c-8.19-6.61-16.87-12.61-25.87-19.26
		c5.12-9.47,10.21-18.88,15.89-29.37c10.43,6.9,20.27,13.4,30.65,20.26c3.34-5.92,6.49-11.21,9.37-16.66
		c4.23-8.01,4.35-8.28,12.22-3.21c6.96,4.48,13.89,9.13,20.17,14.49c1.9,1.62,3.01,6.51,1.99,8.77
		c-3.19,7.09-7.47,13.72-11.53,20.39c-2.02,3.32-4.44,2.94-7.45,0.62C1273.87,294.61,1265.8,288.93,1257.29,282.72z"/>
	<path d="M800.32,255.58c10.52,7.11,19.97,13.5,30.05,20.32c4.23-7.52,8.55-15.2,13.62-24.22c8.19,5.43,16.05,10.42,23.66,15.75
		c9.8,6.87,10.96,5.95,2.89,19.09c-2.04,3.31-3.58,6.93-5.58,10.26c-4.3,7.14-4.89,7.09-11.33,2.08
		c-5.61-4.37-11.43-8.46-17.25-12.55c-1.63-1.14-3.58-1.82-5.34-2.69c-4.68,8.27-9.14,16.15-13.78,24.36
		c-10.32-7.25-19.74-13.7-28.91-20.49c-1.32-0.98-2.5-4.13-1.89-5.38C790.51,273.66,795.07,265.46,800.32,255.58z"/>
	<path d="M450.17,289.48c4.01-7.31,7.74-13.87,11.22-20.57c1.96-3.78,4.41-4.31,7.77-2c7.59,5.21,15.37,10.16,22.61,15.81
		c1.63,1.27,2.64,5.54,1.77,7.42c-3.28,7.06-7.48,13.7-11.3,20.51c-2.18,3.88-4.67,3.35-7.83,1.04
		c-7.36-5.38-14.89-10.54-22.92-16.19c-3.19,6.47-5.92,12-8.64,17.52c-3.95,7.99-4.05,8.14-11.33,3.43
		c-8.66-5.59-17.13-11.48-25.89-17.38c4.02-8.17,8.05-15.82,11.58-23.69c2.4-5.35,5.08-5.42,9.48-2.18
		C434.24,278.8,442.11,283.94,450.17,289.48z"/>
	<path d="M1535.59,266.86c3.69-7.09,7.24-13.5,10.38-20.09c2.35-4.92,5.33-4.91,9.23-2.09c6.88,4.98,13.7,10.04,20.74,14.8
		c3.73,2.52,4.81,5.48,2.68,9.35c-3.65,6.64-7.42,13.21-11.25,19.75c-2.35,4.01-4.86,3.6-8.32,0.75c-7.04-5.8-14.49-11.1-22.83-17.4
		c-3.97,7.52-7.66,13.99-10.85,20.7c-2.39,5.04-4.51,5.84-9.15,1.95c-7.9-6.63-16.45-12.49-25.25-19.06
		c3.89-7.93,7.9-15.85,11.67-23.88c2.15-4.57,4.77-4.74,8.61-1.94C1519.05,255.39,1527.02,260.84,1535.59,266.86z"/>
	<path d="M320.11,272.71c-4.92,8.65-9.3,16.34-14.2,24.94c-10.52-7.27-20.58-14.22-31.22-21.56c4.96-9.63,9.84-19.09,15.12-29.36
		c10.22,6.74,19.71,12.99,29.85,19.67c4.55-8.18,8.84-15.9,13.66-24.56c9.99,6.42,19.5,12.25,28.59,18.7c1.42,1.01,1.91,5.34,1,7.25
		c-3.56,7.42-7.64,14.62-12.1,21.53c-0.73,1.14-4.98,1.39-6.54,0.38C336.4,284.6,328.88,278.96,320.11,272.71z"/>
	<path d="M457,148.24c-17.05-1.79-34.17-6.55-50.83,2.78c-0.45-0.4-1.12-0.88-1.06-0.98c5.11-9.88,9.17-20.61,15.94-29.2
		c2.96-3.76,11.51-4.48,17.43-4.26c11.63,0.44,23.27,2.09,34.77,4.04c7.77,1.32,9.23,5.42,5.49,12.5
		c-2.04,3.86-4.82,7.39-6.41,11.41c-10.83,27.38-36.34,31.03-60.13,37.47c-0.51,0.14-1.21-0.46-3.85-1.56
		c17.25-10.33,33.36-19.98,49.46-29.62C457.54,149.96,457.27,149.1,457,148.24z"/>
	<path d="M750.98,193.54c-1.82,7.83-4.06,13.09-12.07,16.44c-47.3,19.75-94.96,38.82-139.95,63.67
		c-5.92,3.27-11.55,7.05-19.16,11.72c5.63,3.25,9.47,5.1,12.87,7.56c2.41,1.75,5.39,4.01,6.08,6.58c1.55,5.76-2.12,8.48-7.74,6.47
		c-16-5.74-17.97-10.79-11.5-26.4c3.53-8.51,9.79-13.9,17.66-17.54c41.74-19.25,83.57-38.33,125.39-57.41
		c7.73-3.52,15.56-6.82,23.38-10.12C747.3,193.94,748.87,193.93,750.98,193.54z"/>
	<path d="M1076.74,373.3c-16.83-2.41-33.69-6.47-50.28,2.92c0.25-15.47,15.04-33.28,29.3-33.56c12.71-0.25,25.56,1.44,38.16,3.44
		c6.94,1.1,8.1,4.42,4.63,10.45c-6.06,10.53-12.74,20.71-19.21,31c-5.35,8.51-15.08,9.13-23.21,12.39
		c-6.79,2.72-14.05,4.27-21.13,6.21c-0.91,0.25-2.02-0.25-3.03-0.4c-0.35-0.72-0.7-1.43-1.06-2.15
		c15.54-9.32,31.09-18.63,46.63-27.95C1077.27,374.87,1077.01,374.08,1076.74,373.3z"/>
	<path d="M1269.55,165.5c-20,35.17-52.09,54.27-84.87,72.53c-0.48-0.56-0.96-1.13-1.45-1.69c9.24-7.37,18.57-14.61,27.68-22.13
		c9.59-7.92,19.3-15.74,28.33-24.28c8.79-8.3,16.78-17.45,25.32-26.44c-4.82-3.36-8.43-5.77-11.93-8.32
		c-8.76-6.37-10.39-9.71-6.2-19.79c2.64-6.36,6.93-12.47,11.84-17.3c2.93-2.89,9.92-5.49,12.55-3.94c3.78,2.24,6.59,8.17,7.34,12.91
		c0.9,5.72-0.28,11.95-1.53,17.75c-0.96,4.44-0.36,6.86,3.56,9.67c8.28,5.93,8.27,12.75,0.65,20.28
		C1277.43,171.96,1273.99,169.14,1269.55,165.5z M1268.26,146.41c0.8-0.27,1.6-0.55,2.39-0.82c-1.01-4.7-1.56-9.57-3.28-13.99
		c-0.6-1.55-4.45-3.2-6.13-2.67c-2.51,0.8-5.13,3.16-6.27,5.54c-0.55,1.15,1.76,4.36,3.48,5.76
		C1261.43,142.65,1264.96,144.39,1268.26,146.41z"/>
	<path d="M825.86,161.16c-4.55-2.92-8.57-5.16-12.21-7.9c-6.98-5.27-9.43-11.55-5.63-19.38c3.42-7.04,8.31-13.65,13.76-19.27
		c2.4-2.47,8.82-3.89,11.58-2.4c3.23,1.74,5.91,7.06,6.26,11.05c0.62,6.98-0.88,14.13-1.13,21.22c-0.07,2.12,0.41,5.05,1.81,6.3
		c8.73,7.79,9.26,10.81,2.3,22.28c-3.42-3.01-6.76-5.95-10.79-9.5c-19.79,33.11-50.87,51.71-83.55,68.36
		C774.22,208.82,803.67,189.61,825.86,161.16z M830.17,144.82c0.68-0.24,1.36-0.48,2.04-0.71c-0.73-4.83-1-9.79-2.42-14.41
		c-0.52-1.69-4.14-3.91-5.68-3.48c-2.8,0.78-5.65,2.97-7.33,5.37c-0.69,0.98,1.09,4.68,2.68,6.05
		C822.69,140.43,826.56,142.47,830.17,144.82z"/>
	<path d="M209.24,257.55c1.36-8.45,4.1-14.76,11.51-18.27c32-15.15,63.9-30.49,95.98-45.46c18.12-8.46,36.51-16.35,54.81-24.44
		c2.14-0.95,4.44-1.56,8.08-2.81c-3.41,8.28-6.05,13.83-13.9,17.3c-40.37,17.83-80.39,36.45-120.4,55.08
		c-10.61,4.94-20.75,10.92-31.11,16.39C212.88,256.02,211.47,256.56,209.24,257.55z"/>
	<path d="M900.69,657.44c5.8-2.64,11.6-5.26,17.39-7.91c22.19-10.14,42.32-23.13,59.39-40.88c7.25-7.54,15.24-15.26,26.63-15.95
		c5.04-0.31,10.47,0.48,15.24,2.17c8.71,3.08,13.87,1.72,18.56-6.4c1.83-3.17,3.63-6.36,5.55-9.48c0.29-0.47,1.18-0.56,2.81-1.28
		c0.54,7-0.27,16.1,10.76,11.28c1.3-5.59,2.56-11.04,4.14-17.83c6.23,7.88,4.88,21.61-1.19,28.33c-5.35,5.93-10.19,5.82-20.11-0.44
		c-3.48,3.26-6.53,7.29-10.57,9.52c-3.01,1.66-7.79,2.31-10.95,1.16c-17.85-6.54-29.03-4.5-42.1,10.25
		c-19.16,21.62-43.36,33.62-71.18,39.26c-1.25,0.25-2.6,0.03-3.9,0.03C901,658.64,900.84,658.04,900.69,657.44z"/>
	<path d="M163.16,238.54c0.51-3.17,1.31-6.32,1.43-9.5c0.06-1.7-0.58-4.03-1.78-4.99c-1.22-0.97-4.08-1.44-5.24-0.67
		c-22.98,15.38-47.81,15.11-73.81,9.05c-0.79,4.98-1.59,10.08-2.7,17.11c-1.97-2.72-2.91-3.42-2.9-4.1
		c0.15-9.73-4.45-16.86-11.2-23.49c-1.76-1.72-0.26-6.76-0.26-12.04c33.47,23.22,65.27,21.74,97.2,0.76
		c1.18,1.55,2.49,3.36,3.9,5.08c0.42,0.51,1.11,0.79,2.4,1.68c2.26-2.72,4.35-5.65,6.86-8.15c3.7-3.68,7.26-7.91,11.74-10.24
		c2.85-1.48,8.26-1.23,10.7,0.63c2.4,1.83,3.8,6.9,3.26,10.15c-0.62,3.69-3.22,7.74-6.17,10.16c-3.61,2.95-8.28,5.09-12.84,6.29
		c-7.96,2.08-17.65,0.85-18.43,14.01C164.6,239.69,163.88,239.11,163.16,238.54z M197.5,212.25c-8.2-7.1-16.04-4.21-19.51,6.91
		C184.68,216.79,190.59,214.7,197.5,212.25z"/>
	<path d="M690.11,162.69c1.39-9.71,2.6-19.44,4.26-29.1c0.73-4.26,2.07-8.49,3.71-12.49c2.97-7.22,7.24-9.82,12.31-8.11
		c7.15,2.4,11.66,9.35,10.14,16.01c-0.6,2.6-1.8,5.07-3.17,8.81c-2.08-2.83-3.23-5.12-5.02-6.65c-1.97-1.69-4.88-4.08-6.76-3.62
		c-2.3,0.56-5.14,3.49-5.69,5.87c-1.74,7.59-2.33,15.43-3.75,23.1c-1.66,9.04-3.68,18.01-5.65,26.99c-0.36,1.65-1.27,3.17-2.26,5.57
		c-6.57-14.29-12.7-27.62-19.14-41.62c-8.23,6.77-11.95,0.13-16.37-2.84c-4.14-2.78-2.78-6.73-0.89-10.47
		c0.82-1.63,1.33-3.43,1.87-5.19c2.33-7.59,4.96-8.36,11.56-3.42c10.86,8.14,15.41,20.37,20.85,32.02c0.84,1.8,1.6,3.63,2.4,5.45
		C689.06,162.9,689.58,162.79,690.11,162.69z"/>
	<path d="M725.97,615.89c-1.31,2.62-1.63,3.93-2.44,4.76c-11.97,12.36-25.87,21.59-43.17,24.15c-5.49,0.81-11.53,0.18-16.93-1.24
		c-8.73-2.29-10.92-7.18-9.37-16.26c2.02-11.81,10.07-19.95,17.07-28.73c3.13-3.92,6.47-7.67,10.66-12.59
		c-10.73-2.49-19.87-3.91-28.34,3.99c0.33-10.1,8.12-18.03,17.66-18.43c4.08-0.17,8.27,0.32,12.3,1.09
		c8.64,1.65,10.37,4.68,5.77,12.37c-4.46,7.44-10.15,14.16-15.49,21.05c-2.82,3.63-6.31,6.75-9.03,10.44
		c-5.53,7.49-3.49,13.48,5.84,14.76c7.12,0.98,14.94,1.11,21.73-0.85c9.78-2.82,18.91-7.89,28.32-12.01
		C721.86,617.82,723.16,617.19,725.97,615.89z"/>
	<path d="M1058.95,264.1c1.63-11.08,2.8-22.26,5.09-33.2c1.14-5.48,3.98-10.71,6.69-15.71c2.19-4.03,6.62-6.32,10.51-3.6
		c3.76,2.63,7.55,6.79,8.75,11.01c1,3.49-1.76,8.05-2.92,12.39c-1.36-0.79-1.91-0.92-2.02-1.21c-1.68-4.8-4.58-10.07-9.72-8.72
		c-3.16,0.83-6.34,6.44-7.16,10.4c-2.07,9.87-2.5,20.07-4.17,30.05c-1.24,7.43-3.39,14.71-6.28,21.97
		c-7.19-13.31-9.15-28.55-20.72-39.15c-6.57,4.09-10.75-1.45-15.25-4.6c-4.48-3.14-1.9-7.42-0.34-11.23
		c0.35-0.84,0.94-1.6,1.23-2.45c3.55-10.41,4.2-10.95,12.96-4.24c11.84,9.08,17.2,22.37,21.47,36.15c0.25,0.8,0.47,1.6,0.71,2.41
		C1058.15,264.27,1058.55,264.19,1058.95,264.1z"/>
	<path d="M1339.14,145.77c-9.86,6.92-13.29-1.93-18.35-5.03c-1.39-0.85,0.56-7.18,1.01-10.99c0.05-0.43,0.32-0.86,0.54-1.26
		c1.69-2.97,3.39-5.94,5.09-8.91c3.86,2.26,9.12,3.6,11.34,6.96c7.13,10.79,13.13,22.33,19.38,33.25c0.39-2.1,0.94-5.73,1.77-9.3
		c2.43-10.45,4.1-21.19,7.76-31.21c2.91-7.96,8.33-10.09,13.07-7.91c6.18,2.84,9.43,10.45,7.37,17.39c-0.51,1.7-1.26,3.33-2.43,6.35
		c-1.65-2.73-2.3-4.79-3.71-5.91c-2.41-1.92-5.5-4.73-7.9-4.38c-2.21,0.32-4.85,4.04-5.6,6.74c-1.95,7.06-2.88,14.39-4.37,21.58
		c-1.95,9.41-3.97,18.8-6.15,28.16c-0.36,1.52-1.72,2.81-2.8,4.49C1349.74,172.25,1344.63,159.47,1339.14,145.77z"/>
	<path d="M1429.82,544.18c10.27,6.84,19.93,12.93,29.1,19.7c1.6,1.18,2.32,5.71,1.4,7.79c-3.23,7.34-7.33,14.29-11.13,21.37
		c-2.07,3.85-4.6,3.59-7.85,1.19c-7.56-5.58-15.44-10.73-22.84-16.51c-1.56-1.21-2.84-4.93-2.12-6.54
		C1420.18,562.61,1424.67,554.34,1429.82,544.18z"/>
	<path d="M313.37,160.04c1.18-8.52,2.05-17.11,3.65-25.55c0.97-5.14,2.34-10.47,4.88-14.94c1.81-3.17,6.47-7.53,8.8-6.97
		c4.1,0.99,8.48,4.69,10.72,8.45c2.59,4.35,1.2,9.64-2.39,14.5c-1.63-2.11-2.57-4.08-4.13-5.17c-2.33-1.64-5.69-4.25-7.52-3.56
		c-2.33,0.88-4.55,4.45-5.09,7.2c-2.11,10.82-3.28,21.82-5.33,32.65c-0.99,5.26-3.14,10.31-4.77,15.45
		c-0.65,0.05-1.29,0.1-1.94,0.15c-0.91-1.81-1.97-3.56-2.69-5.44c-2.54-6.63-4.54-13.51-7.58-19.9c-2.29-4.82-3.64-10-12.04-9.85
		c-9.68,0.17-13.12-7.57-9.89-17.11c4.13-12.16,6.76-12.6,16.05-2.97C303.12,136.32,308.11,147.8,313.37,160.04z"/>
	<path d="M330.56,542.73c9.97,6.24,18.57,11.47,27,16.96c4.78,3.11,6.74,7.05,3.28,12.73c-3.81,6.25-6.83,12.98-10.71,19.19
		c-0.79,1.27-4.56,2.21-5.77,1.43c-8.48-5.4-16.73-11.17-24.83-17.12c-1.39-1.02-2.94-3.96-2.42-5.13
		C321.15,561.66,325.69,552.73,330.56,542.73z"/>
	<path d="M670.38,349.3c-4.62,8.54-9.06,17.02-13.95,25.23c-0.41,0.68-4.33,0.12-5.94-0.92c-8.09-5.22-16.07-10.63-23.79-16.37
		c-1.4-1.04-2.47-4.44-1.83-5.97c3.27-7.81,6.99-15.46,11-22.92c0.64-1.2,4.22-2.24,5.32-1.56c8.55,5.36,16.88,11.07,25.13,16.9
		C667.83,344.76,668.64,346.83,670.38,349.3z"/>
	<path d="M1120.08,622.38c-2.75-6.23-1.96-8.26,6.98-16.06c-0.07-0.42,0-1.08-0.24-1.22c-11.68-6.99-13.23-11.74-6.27-23.49
		c3.11-5.25,7.23-10.16,11.77-14.22c6.07-5.42,13.13-5.4,16.78-1.13c3.07,3.6,1.58,10.32-3.54,15.92
		c-6.29-5.03-10.9-5.46-15.36-1.67c-3.13,2.67-3.01,5.02,0.46,7.01c7.72,4.43,15.58,6.98,24,1.5c2.89-1.88,5.95-3.51,9.08-4.95
		c1.04-0.48,3.04-0.48,3.65,0.18c0.67,0.72,0.77,2.78,0.21,3.7c-3.09,5.14-5.17,10.45-11.68,13.57
		C1143.62,607.42,1132.21,615.18,1120.08,622.38z"/>
	<path d="M447.29,268.47c-10.53-6.96-20.2-13.13-29.53-19.77c-1.26-0.9-1.75-4.67-0.96-6.32c3.57-7.47,7.58-14.75,11.85-21.84
		c0.71-1.17,4.18-2.09,5.28-1.39c8.35,5.3,16.59,10.81,24.47,16.78c1.66,1.26,3.04,5.28,2.26,6.96
		C456.64,251.56,451.87,259.88,447.29,268.47z"/>
	<path d="M279.95,676.79c2.57-5.58,2.41-12.48,9.61-15.77c31.16-14.25,62.27-28.59,93.39-42.92c2.98-1.37,5.91-2.86,9.5-3.57
		c-2.2,6.25-3.87,12.35-10.58,15.5c-30.42,14.27-60.75,28.72-91.11,43.13c-3.2,1.52-6.34,3.18-9.51,4.78
		C280.83,677.55,280.39,677.17,279.95,676.79z"/>
	<path d="M1515.99,194.53c9.82,7.19,18.66,13.35,27.03,20.07c1.6,1.28,2.66,5.4,1.81,7.19c-3.98,8.4-8.71,16.44-13.21,24.67
		c-10.28-7.01-19.75-13.35-29.02-19.98c-1-0.71-1.59-3.52-1.01-4.68C1505.96,213.06,1510.67,204.49,1515.99,194.53z"/>
	<path d="M490.95,480.05c-1.56,1.77-3.02,3.23-4.26,4.86c-4.35,5.7-9.93,6.15-16.04,3.64c-11.13-4.58-19.36-3.02-27.8,5.93
		c-4.41,4.68-8.48,9.69-12.55,14.69c-10.72,13.17-25.63,19.4-40.65,25.49c-0.39-0.46-0.77-0.91-1.16-1.37
		c1.47-1.37,2.71-3.22,4.43-4.05c19.37-9.3,33.9-24.09,47.34-40.4c3.97-4.82,9.62-8.43,14.94-11.93c5.3-3.48,11.11-3.4,17.14-0.89
		c9.36,3.91,12.98,2.24,17.53-6.9c1.25-2.51,2.91-4.82,6.07-6.85c0.27,1.63,0,3.76,0.93,4.8c1.7,1.88,4,3.35,6.33,4.38
		c0.38,0.17,2.6-2.7,3.2-4.43c1.14-3.32,1.72-6.84,2.69-10.95c5.56,5.47,5.18,15.64,0.17,22.73
		C505.34,484.36,500.38,484.81,490.95,480.05z"/>
	<path d="M604.7,235.82c1.07-9.6,2.7-17.96,2.79-26.32c0.32-27.06-11.27-49.26-29.52-68.38c-8.07-8.46-8.66-10.82-3.88-22.46
		C605.6,131.8,627.49,212.29,604.7,235.82z"/>
	<path d="M898.71,409.18c2.42-8.32,4.31-15.11,11.91-18.6c24.26-11.15,48.44-22.46,72.67-33.66c5.98-2.76,12.04-5.33,19.21-8.5
		c-1.27,8.09-3.9,13.4-10.7,16.46c-22.23,10.02-44.42,20.14-66.5,30.49C916.69,399.41,908.39,404.13,898.71,409.18z"/>
	<path d="M1425.27,315.97c-2.22,8.28-4.41,13.49-11.27,16.57c-23.86,10.71-47.45,22.01-71.11,33.18c-3.69,1.74-7.17,3.94-10.84,5.98
		c-0.73-7.83,3.08-14.5,10.52-17.9c20.86-9.53,41.79-18.88,62.67-28.36C1411.41,322.63,1417.51,319.64,1425.27,315.97z"/>
	<path d="M1176.68,614.68c-1.8,6.9-3.83,12.45-10.57,15.41c-19.33,8.47-38.55,17.2-57.77,25.93c-3.25,1.47-6.27,3.44-10.36,5.71
		c1.16-9.3,4.48-15.68,12.45-19.15c21.24-9.26,42.46-18.6,63.7-27.87C1174.51,614.54,1175.02,614.68,1176.68,614.68z"/>
	<path d="M128.57,515.19c-3.43,10.89-7.44,21.64-10.03,32.73c-1.23,5.26-0.26,11.24,0.71,16.72c0.36,2.05,3.72,5.14,5.45,4.98
		c2.29-0.21,4.58-2.93,6.4-4.99c1.54-1.73,2.41-4.06,3.96-6.8c2.53,7.18-2.86,24.36-8.46,26.47c-2.78,1.05-7.47,0.18-9.93-1.66
		c-6.04-4.51-7.69-11.81-6.4-18.67c2.32-12.33,5.85-24.43,9.02-36.59c0.81-3.09,1.92-6.17,3.4-8.99c0.95-1.81,2.85-3.12,4.32-4.65
		C127.54,514.23,128.06,514.71,128.57,515.19z"/>
	<path d="M973.19,281.83c-3.05,7.39-5.28,15.27-9.41,22c-3.22,5.25-13.16,2.8-15.62-4.18c-1.96-5.57-3.08-12.41-1.72-17.99
		c3.52-14.44,8.58-28.51,13.14-42.7c0.44-1.36,1.71-2.45,4.09-3.23c-0.43,2.72-0.55,5.55-1.36,8.16
		c-2.58,8.34-5.89,16.48-7.97,24.93c-1.23,5-1.48,10.57-0.63,15.62c0.45,2.7,3.83,5.78,6.59,6.83c1.25,0.47,4.36-3.47,6.36-5.65
		c1.41-1.54,2.37-3.49,3.53-5.26C971.19,280.86,972.19,281.34,973.19,281.83z"/>
	<path d="M1450.91,272.12c0.8,3.35,1.71,4.87,1.34,5.96c-1.92,5.61-3.52,11.48-6.44,16.57c-4.16,7.26-12.54,6.8-16.25-0.66
		c-1.59-3.2-2.52-6.97-2.76-10.55c-1.26-18.99,8.65-34.55,15.07-51.18c0.71,0.13,1.42,0.27,2.13,0.4c-0.31,2.42-0.28,4.96-1,7.25
		c-2.9,9.18-6.47,18.18-8.85,27.48c-0.94,3.66-0.06,8.17,1.23,11.87c0.75,2.15,4.15,4.98,5.98,4.73c2.29-0.32,4.34-3.35,6.2-5.46
		C1448.64,277.28,1449.16,275.54,1450.91,272.12z"/>
	<path d="M1369.61,585.93c-2.53,7.71-5.3,15.36-7.5,23.17c-1.23,4.36-2.55,9.15-1.89,13.44c0.53,3.48,3.96,6.52,6.1,9.76
		c2.23-2.17,4.47-4.34,6.67-6.53c0.89-0.88,1.7-1.83,2.77-3c1.39,6.14-3.07,20.81-7.57,22.51c-2.8,1.06-7.72,0.48-9.77-1.42
		c-2.76-2.56-4.88-7.01-5.19-10.82c-1.36-16.95,5.7-31.89,12.5-46.78c0.28-0.62,1.39-0.86,2.11-1.27
		C1368.44,585.3,1369.02,585.62,1369.61,585.93z"/>
	<path d="M235.14,306.55c-2.02,6.28-4.37,12.48-5.98,18.86c-1.66,6.62-2.91,13.38-3.68,20.15c-0.25,2.16,1.14,4.93,2.59,6.79
		c3.81,4.88,6.96,4.43,9.87-0.99c1.2-2.24,2.38-4.49,4.1-7.75c1.72,7.12-3.23,21.76-7.55,24.16c-4.81,2.67-9.78,1.6-11.92-3.02
		c-2.3-4.98-4.58-11.31-3.44-16.27c3.17-13.81,8.1-27.21,12.39-40.76c0.23-0.73,1.03-1.27,1.56-1.91
		C233.77,306.06,234.45,306.3,235.14,306.55z"/>
	<path d="M722.92,253.66c-0.52,2.55-0.79,5.17-1.6,7.63c-2.08,6.33-4.48,12.57-6.6,18.89c-3.38,10.08-1.28,17.06,7.49,22.85
		c2.3-3.7,4.59-7.38,7.04-11.31c1.96,6.14-2.06,19.61-6.47,22.69c-4.09,2.87-9.83,1.12-12.86-3.9c-4.01-6.65-3.02-13.7-1.79-20.81
		c2.24-12.94,6.64-25.09,12.52-36.7C721.42,253.22,722.17,253.44,722.92,253.66z"/>
	<path d="M917.68,111.1c-0.88,2.64-1.89,5.25-2.6,7.94c-1.75,6.6-3.96,13.17-4.73,19.9c-0.28,2.48,2.97,5.37,4.61,8.07
		c2.32-1.63,4.63-3.26,6.95-4.89c0.54-0.38,1.08-0.77,1.65-1.17c2.65,6.15-4,19.17-10.08,18.83c-2.71-0.15-6.83-2.93-7.55-5.34
		c-1.52-5.09-2.55-11.03-1.37-16.06c2.27-9.72,6.2-19.05,9.44-28.54C915.22,110.26,916.45,110.68,917.68,111.1z"/>
	<path d="M734.17,349.28c-0.67,2.68-1.29,5.38-2.03,8.04c-1.24,4.41-2.75,8.75-3.8,13.21c-1.27,5.37-0.43,10.95,4.96,12.82
		c2.02,0.7,5.86-3.81,9.75-6.56c0.19,5.01-1.13,10.06-4.67,14c-1.8,2-6.67,4.15-7.83,3.24c-3.28-2.56-6.94-6.36-7.63-10.19
		c-2.33-12.9,3.84-23.98,8.79-35.19C732.52,348.86,733.34,349.07,734.17,349.28z"/>
	<path d="M1452.1,139.09c-1.12,3.36-1.56,7.23-3.57,9.93c-1.9,2.56-6.1,5.93-8.11,5.28c-2.93-0.94-6.18-4.9-6.79-8.06
		c-0.92-4.77-0.44-10.16,0.81-14.93c1.93-7.37,5.01-14.44,7.61-21.63c0.82,0.23,1.65,0.46,2.47,0.68c-0.73,3.29-1.42,6.59-2.2,9.86
		c-1.28,5.31-3.15,10.55-3.69,15.93c-0.25,2.45,2.07,5.15,3.22,7.74c2.3-1.42,4.6-2.82,6.89-4.25c0.54-0.34,1.03-0.76,1.55-1.14
		C1450.89,138.69,1451.5,138.89,1452.1,139.09z"/>
	<path d="M259.47,180.18c-1.1,2.6-1.62,5.77-3.45,7.65c-2,2.06-5.53,4.36-7.84,3.88c-2.09-0.43-4.54-4.31-4.9-6.94
		c-1.53-11.2,3.44-20.83,7.57-30.59c0.79,0.22,1.58,0.44,2.37,0.66c-1.52,4.99-3.12,9.95-4.53,14.97
		c-1.51,5.38-2.79,10.8,5.59,14.65c0.92-1.79,1.95-3.8,2.98-5.82C258,179.16,258.74,179.67,259.47,180.18z"/>
</g>
</svg>
